<?xml version="1.0" encoding="UTF-8"?>
<svg version="1.1" xmlns="http://www.w3.org/2000/svg" width="486" height="487">
<path d="M0 0 C160.38 0 320.76 0 486 0 C486 160.71 486 321.42 486 487 C325.62 487 165.24 487 0 487 C0 326.29 0 165.58 0 0 Z " fill="#A57A53" transform="translate(0,0)"/>
<path d="M0 0 C160.38 0 320.76 0 486 0 C486 160.71 486 321.42 486 487 C325.62 487 165.24 487 0 487 C0 326.29 0 165.58 0 0 Z M190 16 C189.15985352 16.19577637 188.31970703 16.39155273 187.45410156 16.59326172 C148.51635371 25.8073801 112.8597285 43.63805611 83.35546875 70.83203125 C81.77328642 72.28826872 80.17115057 73.72309512 78.55078125 75.13671875 C42.02604384 107.07436198 16.5846659 155.50463665 8 203 C7.85336914 203.76940918 7.70673828 204.53881836 7.55566406 205.33154297 C2.30242043 233.98713967 3.61634697 264.4951616 9 293 C9.17660156 293.95068359 9.35320313 294.90136719 9.53515625 295.88085938 C16.41217275 331.46305216 33.47444035 366.49894817 57 394 C57.80308594 394.98484375 58.60617188 395.9696875 59.43359375 396.984375 C69.43613741 409.18773697 80.43310553 420.42198854 93 430 C93.82854492 430.63518555 93.82854492 430.63518555 94.67382812 431.28320312 C114.08961285 446.0954648 135.0496684 458.52478962 158 467 C158.90363281 467.35449219 159.80726563 467.70898438 160.73828125 468.07421875 C181.31867592 475.97534144 204.09025052 481.05355001 226.1484375 481.23828125 C227.11042053 481.24802979 228.07240356 481.25777832 229.0635376 481.26782227 C249.41667432 481.43167307 269.03327707 481.3702265 289 477 C290.76791485 476.65593309 292.53614192 476.31346631 294.3046875 475.97265625 C314.51257262 471.84381833 333.88929524 463.75847386 352 454 C352.95132812 453.51273437 353.90265625 453.02546875 354.8828125 452.5234375 C379.94287881 439.44544371 404.20941077 419.82119965 421.7890625 397.76953125 C423.23776804 395.95480999 424.71113988 394.15944774 426.2109375 392.38671875 C455.98121686 357.13244056 476.78521751 305.62949148 477.23828125 259.296875 C477.2480751 258.46979538 477.25786896 257.64271576 477.26795959 256.79057312 C477.44899685 237.49821987 477.00855961 218.95371452 473 200 C472.78569336 198.97181152 472.57138672 197.94362305 472.35058594 196.88427734 C464.68927618 161.22628905 448.62709235 128.50217016 426 100 C425.5678418 99.45069824 425.13568359 98.90139648 424.69042969 98.33544922 C413.11687601 83.74524115 399.71200276 70.19104022 384.65478516 59.21044922 C383.00755869 58.00552907 381.38428859 56.77300818 379.76171875 55.53515625 C350.52278611 33.56909369 314.97066828 19.18943879 278.875 13.875 C277.77285156 13.70613281 276.67070312 13.53726562 275.53515625 13.36328125 C263.80293467 11.59579354 252.43706977 10.79535098 240.5625 10.8125 C239.85545929 10.81277191 239.14841858 10.81304382 238.41995239 10.81332397 C221.93193186 10.84244364 206.08194733 12.19914247 190 16 Z " fill="#EEEEE9" transform="translate(0,0)"/>
<path d="M0 0 C0.82999512 0.13954102 1.65999023 0.27908203 2.51513672 0.42285156 C17.73413766 3.04614505 32.70474404 6.04813046 47 12 C47.88405518 12.36254883 48.76811035 12.72509766 49.67895508 13.09863281 C86.76560365 28.41465287 121.84998685 52.63755536 145 86 C145.46712402 86.66580078 145.93424805 87.33160156 146.41552734 88.01757812 C165.59360468 115.51633575 178.8082232 144.97028764 185 178 C185.15098145 178.79035645 185.30196289 179.58071289 185.45751953 180.39501953 C195.5309352 234.9783711 181.02034671 293.52918123 150 339 C144.19614531 347.35465109 137.78043819 355.41236679 131 363 C130.67 363 130.34 363 130 363 C129.96261719 361.80246094 129.92523438 360.60492188 129.88671875 359.37109375 C129.53258335 350.06856154 128.74416148 341.27050814 126.62109375 332.19921875 C125.98920862 328.94441422 125.55676574 326.29393042 126 323 C127.90625 321.41796875 127.90625 321.41796875 130.5 320.1875 C140.07520597 314.9597355 145.40412008 307.18575428 149 297 C152.65108655 283.23821224 150.13437429 268.06907079 143.3125 255.8125 C130.83561105 236.51866421 111.55364587 226.54177491 91 218 C92.32466903 213.9039036 93.8190937 209.92553545 95.4375 205.9375 C101.81459847 189.27780192 103.70331587 172.62739191 96.67578125 155.8359375 C93.1864257 148.45425621 89.86563165 142.28716539 82.71875 138.05859375 C75.89186998 134.0185297 71.6513313 130.85133609 69.33959961 123.01879883 C68.90328074 121.29165564 68.47576186 119.5622665 68.05688477 117.83081055 C66.55035727 111.60603124 64.49521203 106.25565722 61.4375 100.625 C61.07293701 99.94236084 60.70837402 99.25972168 60.33276367 98.55639648 C58.5179839 95.29174997 56.70707074 92.63839294 54.09765625 89.9609375 C53.40542969 88.98382813 52.71320313 88.00671875 52 87 C52.6640625 83.65234375 52.6640625 83.65234375 54 80 C54.34706 77.18609197 54.38133832 74.39572791 54.375 71.5625 C54.37338867 70.81258789 54.37177734 70.06267578 54.37011719 69.29003906 C54.24190455 63.52549822 53.33699245 59.82010021 50 55 C49.4225 54.113125 48.845 53.22625 48.25 52.3125 C41.63078105 45.50941385 33.9975075 42.97615306 24.625 42.5625 C16.65671368 42.6907253 11.79830417 45.32336123 6.125 50.75 C5.42375 51.4925 4.7225 52.235 4 53 C0.05178027 54.31607324 -2.75738398 53.20450096 -6.625 52.125 C-32.71021726 44.8929608 -63.12036326 47.60109413 -88.33984375 56.6953125 C-90.92289132 57.61605731 -93.34877162 58.37364501 -96 59 C-96.53367188 58.33613281 -97.06734375 57.67226562 -97.6171875 56.98828125 C-103.88794274 49.55667686 -110.92242672 43.7445117 -120.93359375 42.69140625 C-131.13752113 42.31601093 -138.60441489 44.27665173 -146.3828125 51.0859375 C-153.18925712 58.24400657 -156.18389391 64.60192813 -156.5 74.5 C-156.26480766 82.60197068 -154.55800989 88.25192459 -149.1875 94.3125 C-148.1046875 95.6428125 -148.1046875 95.6428125 -147 97 C-147.53790838 101.25813157 -150.04256853 104.6845563 -152.1875 108.3125 C-165.99975451 132.47025362 -170.64409568 160.17896546 -171.203125 187.79296875 C-171.59422515 203.11105785 -172.31908321 212.50921201 -183.45458984 223.35791016 C-186.07733302 226.14473016 -187.96224749 229.32687771 -189.875 232.625 C-190.23819336 233.25011475 -190.60138672 233.87522949 -190.97558594 234.51928711 C-202.26160526 254.3686386 -208.12465183 275.42372864 -202 298 C-201.66548828 299.0828125 -201.66548828 299.0828125 -201.32421875 300.1875 C-200.8451986 304.34285556 -201.8391926 308.01011252 -202.75 312.0625 C-204.93915137 322.32056532 -206.54180955 332.6159165 -208 343 C-231.63161355 320.87145728 -242.41515083 280.72286204 -248 250 C-248.19480957 248.9476416 -248.19480957 248.9476416 -248.39355469 247.87402344 C-257.75420672 193.99127853 -242.31539084 136.13042969 -211.37255859 91.66113281 C-204.988439 82.80347536 -198.10339551 74.40354985 -190.50585938 66.55712891 C-189.44358117 65.45868364 -188.38821763 64.35353079 -187.33789062 63.24365234 C-140.4034719 13.71768275 -67.51660628 -11.42705301 0 0 Z " fill="#EEEEE8" transform="translate(272,30)"/>
<path d="M0 0 C0.69182373 -0.00133942 1.38364746 -0.00267883 2.09643555 -0.00405884 C15.13275298 0.00136237 27.81641504 1.12381769 40.6875 3.25 C41.4599707 3.3727832 42.23244141 3.49556641 43.02832031 3.62207031 C52.44415116 5.14048284 61.60878177 7.32542441 70.6875 10.25 C71.52700195 10.51941406 72.36650391 10.78882813 73.23144531 11.06640625 C119.75935156 26.18838492 161.52164737 54.5835987 190.6875 94.25 C191.16251953 94.88067383 191.63753906 95.51134766 192.12695312 96.16113281 C213.92562313 125.15422553 227.72739447 158.79656627 234.6875 194.25 C234.85411133 195.06227051 235.02072266 195.87454102 235.19238281 196.71142578 C240.49503007 223.53755118 240.21027482 254.72164493 233.6875 281.25 C233.41953613 282.34393066 233.15157227 283.43786133 232.87548828 284.56494141 C222.65597233 325.43727998 205.97261481 360.84389796 177.6875 392.25 C176.83800781 393.21035156 175.98851562 394.17070312 175.11328125 395.16015625 C167.52237092 403.70476329 159.64766756 411.13801322 150.6875 418.25 C149.23730469 419.425625 149.23730469 419.425625 147.7578125 420.625 C133.86167683 431.65704664 118.78716331 440.81791499 102.6875 448.25 C101.95644043 448.59015137 101.22538086 448.93030273 100.47216797 449.28076172 C86.63043521 455.68629156 72.9851084 460.85744221 58.125 464.375 C57.11566406 464.61686035 56.10632813 464.8587207 55.06640625 465.10791016 C37.80179329 469.03388745 20.80956029 470.75376792 3.12133789 470.64111328 C0.12274869 470.62498789 -2.87449716 470.64109922 -5.87304688 470.66015625 C-22.14055801 470.6783804 -38.00538868 469.04718612 -53.75 464.8125 C-54.57145508 464.59932129 -55.39291016 464.38614258 -56.23925781 464.16650391 C-97.83868373 453.23258972 -134.36299603 431.97781302 -165.3125 402.25 C-166.2096875 401.3940625 -167.106875 400.538125 -168.03125 399.65625 C-173.9491386 393.88448211 -179.25475978 387.78537718 -184.3125 381.25 C-184.73644043 380.7024707 -185.16038086 380.15494141 -185.59716797 379.59082031 C-208.72650638 349.48972297 -224.57539405 314.67836638 -231.3125 277.25 C-231.47476074 276.36860352 -231.63702148 275.48720703 -231.80419922 274.57910156 C-242.24881736 215.05879055 -228.05694238 151.8940027 -193.73291016 102.24902344 C-189.81178655 96.73060472 -185.65667619 91.43999791 -181.3125 86.25 C-180.81186035 85.64784668 -180.3112207 85.04569336 -179.79541016 84.42529297 C-141.68002178 38.73224507 -85.03087342 6.80546003 -25.42114258 0.96679688 C-16.94572713 0.27219156 -8.50231247 0.00985842 0 0 Z M-138.3125 67.25 C-139.06015625 67.88679688 -139.8078125 68.52359375 -140.578125 69.1796875 C-158.65630816 85.04299392 -173.99558228 102.56800065 -186.3125 123.25 C-186.71033691 123.91547852 -187.10817383 124.58095703 -187.51806641 125.26660156 C-199.51644806 145.55571046 -207.88595839 166.82184157 -213 189.8125 C-213.20270508 190.72177246 -213.40541016 191.63104492 -213.61425781 192.56787109 C-216.53350529 206.28443543 -217.6649277 219.59086996 -217.5625 233.5625 C-217.55906586 234.33201996 -217.55563171 235.10153992 -217.55209351 235.89437866 C-217.4934884 247.1042419 -217.35814768 258.19944168 -215.3125 269.25 C-215.1671582 270.04954102 -215.02181641 270.84908203 -214.87207031 271.67285156 C-209.07748498 302.28815571 -198.12633624 339.81878083 -175.3125 362.25 C-175.17150879 361.33822998 -175.03051758 360.42645996 -174.88525391 359.48706055 C-174.35336275 356.05198464 -173.82016711 352.61711617 -173.28613281 349.18237305 C-173.05678174 347.70556413 -172.82792672 346.22867807 -172.59960938 344.75170898 C-172.26828498 342.60899923 -171.93495902 340.46660693 -171.6015625 338.32421875 C-171.49426819 337.62569794 -171.38697388 336.92717712 -171.27642822 336.20748901 C-170.50942834 331.2834253 -169.5696839 326.41631213 -168.46240234 321.55786133 C-168.27387166 318.65528713 -169.12848813 316.87897109 -170.3125 314.25 C-174.77130398 290.54642271 -168.2714241 268.71006062 -155.3125 248.8125 C-152.08893005 244.19014229 -148.65134207 239.75974694 -145.07421875 235.40625 C-144.49285156 234.6946875 -143.91148437 233.983125 -143.3125 233.25 C-142.79405518 232.67008301 -142.27561035 232.09016602 -141.74145508 231.49267578 C-139.91082187 228.61958563 -139.84279082 226.60434847 -139.6875 223.2109375 C-139.59033691 221.4004895 -139.59033691 221.4004895 -139.49121094 219.5534668 C-139.43223633 218.25707275 -139.37326172 216.96067871 -139.3125 215.625 C-139.16056567 212.88873551 -138.99498697 210.15335918 -138.828125 207.41796875 C-138.78681458 206.72764053 -138.74550415 206.03731232 -138.70294189 205.32606506 C-136.92524489 176.23392944 -133.01546429 145.60857221 -115.46484375 121.4140625 C-114.12536296 119.35601751 -114.12536296 119.35601751 -114.4453125 117.203125 C-115.77070081 114.2180162 -117.77550597 111.9509215 -119.83984375 109.4453125 C-124.48530165 102.52025324 -124.2033091 94.25123125 -123.3125 86.25 C-120.18799178 76.02109667 -113.47362317 68.75446742 -104.125 63.75 C-95.96092332 60.57824199 -87.02927189 61.23220897 -78.9375 64.25 C-72.15977914 67.42139345 -67.43107281 72.07214078 -63.3125 78.25 C-62.095625 77.8375 -60.87875 77.425 -59.625 77 C-58.79355469 76.72671875 -57.96210938 76.4534375 -57.10546875 76.171875 C-55.22782986 75.55212286 -53.35539367 74.91640277 -51.48828125 74.265625 C-26.43737435 65.92601451 4.37325951 64.63379662 29.87353516 71.87036133 C31.79045018 72.41140161 33.73848587 72.8393521 35.6875 73.25 C38.33331624 71.18973281 38.33331624 71.18973281 40.6875 68.25 C48.52607177 62.72494844 54.00425177 61.46892031 63.6875 62.25 C72.51494693 64.37696287 78.32972983 68.00830964 83.57421875 75.37109375 C86.56167393 80.41307951 86.99820982 84.83733046 86.9375 90.625 C86.94523437 91.35460937 86.95296875 92.08421875 86.9609375 92.8359375 C86.94741623 96.62189294 86.64747198 99.37714783 85.4921875 103.046875 C84.34234771 106.13363129 84.34234771 106.13363129 85.7421875 108.3046875 C86.34289062 108.90539062 86.94359375 109.50609375 87.5625 110.125 C91.10361423 114.23771141 93.51028654 118.37546871 95.8125 123.25 C96.15547119 123.97485596 96.49844238 124.69971191 96.85180664 125.4465332 C98.87953859 129.93123219 100.30667694 134.32491669 101.46435547 139.10253906 C103.09212339 145.8183801 104.28384364 149.7988667 110.1875 154 C112.01092837 155.09992328 113.84306034 156.18568587 115.6875 157.25 C118.5625 159.875 118.5625 159.875 120.6875 162.25 C121.925 163.5803125 121.925 163.5803125 123.1875 164.9375 C131.8196163 175.60549278 134.9917953 189.62458786 133.95068359 203.11962891 C132.66122975 213.55726736 129.34951734 223.95968272 124.60546875 233.31640625 C123.54454311 235.19438321 123.54454311 235.19438321 123.6875 237.25 C124.22004395 237.47550537 124.75258789 237.70101074 125.30126953 237.93334961 C148.95430145 248.03437002 170.47605927 260.24303525 180.6875 285.25 C182.41291704 290.98378385 183.04478525 296.15192781 183 302.125 C182.99436035 302.91583984 182.9887207 303.70667969 182.98291016 304.52148438 C182.75550064 315.48217291 179.40335213 325.17400271 171.765625 333.29296875 C167.73380914 336.95754557 163.51087027 339.73782799 158.6875 342.25 C159.10349664 347.29669614 159.64602209 352.22882158 160.6875 357.1875 C162.28409172 365.43258559 162.35783687 373.87829145 162.6875 382.25 C198.28566232 346.89734225 219.18629234 295.2467421 220.6875 245.25 C220.72004883 244.32638672 220.75259766 243.40277344 220.78613281 242.45117188 C221.96297219 204.43569383 213.54450607 167.80475118 195.6875 134.25 C195.34348145 133.59531738 194.99946289 132.94063477 194.64501953 132.26611328 C180.75391327 105.99281813 160.86820753 80.78101296 136.6875 63.25 C135.1096875 62.074375 135.1096875 62.074375 133.5 60.875 C116.98747255 48.70405789 99.22639476 38.95394947 80.08984375 31.57421875 C77.79825896 30.68231606 75.52791905 29.73403967 73.28125 28.734375 C69.31790087 27.09733949 65.39201109 25.89744938 61.25 24.8125 C60.03848267 24.49490723 60.03848267 24.49490723 58.80249023 24.17089844 C52.00524505 22.45729642 45.16158434 21.15941489 38.25 20 C36.79605835 19.75552124 36.79605835 19.75552124 35.31274414 19.50610352 C-25.95182904 9.70773075 -90.93523809 26.89764244 -138.3125 67.25 Z M-111.12890625 80.515625 C-111.51949219 81.08796875 -111.91007812 81.6603125 -112.3125 82.25 C-112.93125 83.136875 -113.55 84.02375 -114.1875 84.9375 C-116.17481289 90.78903241 -116.43844736 96.87215791 -114.46875 102.78125 C-111.57218377 108.4960969 -107.33665399 112.37279928 -102.3125 116.25 C-103.04171859 120.15592943 -104.87452749 122.00398863 -107.49609375 124.94140625 C-125.4352105 147.74144496 -129.47477957 180.85368098 -130.79296875 208.87109375 C-130.82861435 209.59198685 -130.86425995 210.31287994 -130.90098572 211.05561829 C-131.06940765 214.5677523 -131.20260322 218.07570335 -131.27807617 221.59106445 C-131.59761369 229.73078115 -132.60435271 234.38685621 -138.3125 240.25 C-153.37511085 259.62372461 -165.57693263 279.72366857 -163.3125 305.25 C-162.67261656 307.68568534 -161.96493216 310.10466847 -161.1875 312.5 C-159.05393552 319.2324137 -159.5083022 323.54092274 -161.3125 330.25 C-163.53935762 340.55650333 -165.2753123 350.76287993 -166.3125 361.25 C-166.49167969 362.44753906 -166.67085938 363.64507812 -166.85546875 364.87890625 C-167.47135131 371.36378728 -166.72828465 375.48060773 -162.72729492 380.54736328 C-160.06430124 383.60007365 -157.2271801 386.43904517 -154.3125 389.25 C-153.74063965 389.81638184 -153.1687793 390.38276367 -152.57958984 390.96630859 C-123.19076251 419.97227383 -85.82539448 440.11145116 -45.5625 449.0625 C-44.68940186 449.2574707 -43.81630371 449.45244141 -42.91674805 449.65332031 C-28.3682277 452.69190988 -13.88481944 453.63089504 0.9375 453.5625 C1.74387909 453.56100952 2.55025818 453.55951904 3.381073 453.5579834 C15.21231898 453.51881144 26.72372579 452.99546529 38.36328125 450.703125 C40.79877491 450.22830607 43.24007267 449.81478501 45.6875 449.40625 C83.84695145 442.7552771 126.18677891 422.07712026 152.6875 393.25 C157.65778223 378.44406171 153.48499685 358.64249055 148.6875 344.25 C147.3675 344.25 146.0475 344.25 144.6875 344.25 C145.03718979 339.70403271 145.03718979 339.70403271 146.6875 337.25 C149.140625 336.2109375 149.140625 336.2109375 152.1875 335.375 C159.32500763 333.33571211 164.02619075 330.03821917 168.6875 324.25 C170.78035445 320.3632703 172.33302232 316.44573086 173.6875 312.25 C174.0175 311.26 174.3475 310.27 174.6875 309.25 C175.75499795 293.46334756 171.82564434 282.31024605 161.6875 270.25 C150.99197585 258.89710975 137.80462808 252.39065005 123.6875 246.25 C122.78128906 245.8375 121.87507813 245.425 120.94140625 245 C118.29269605 243.98688801 118.29269605 243.98688801 113.6875 244.25 C114.3475 249.2 115.0075 254.15 115.6875 259.25 C116.925 258.92 118.1625 258.59 119.4375 258.25 C125.18522546 256.94828227 130.8248892 257.07144333 136.6875 257.25 C136.6875 258.9 136.6875 260.55 136.6875 262.25 C132.31451217 263.7724973 127.93256961 264.95754042 123.4375 266.0625 C117.06516658 267.68532196 111.39101097 269.9755137 105.6875 273.25 C105.3575 272.59 105.0275 271.93 104.6875 271.25 C102.71227154 270.20191959 100.71268491 269.1979589 98.6875 268.25 C99.265 267.89808594 99.8425 267.54617188 100.4375 267.18359375 C101.55125 266.44302734 101.55125 266.44302734 102.6875 265.6875 C103.43 265.21183594 104.1725 264.73617187 104.9375 264.24609375 C106.99280475 262.28465651 106.99280475 262.28465651 107.05078125 259.0390625 C106.65826806 254.94510776 105.91374375 251.15738974 104.875 247.1875 C104.6265332 246.1655957 104.6265332 246.1655957 104.37304688 245.12304688 C103.28623529 240.85372288 101.80736781 237.14351078 99.6875 233.25 C100.326875 232.96125 100.96625 232.6725 101.625 232.375 C103.83956079 231.42176549 103.83956079 231.42176549 104.6875 229.25 C105.3475 229.25 106.0075 229.25 106.6875 229.25 C108.0075 231.89 109.3275 234.53 110.6875 237.25 C117.68985884 231.12686111 123.24547092 219.37332325 124.50390625 210.19140625 C124.56449219 209.22074219 124.62507813 208.25007812 124.6875 207.25 C124.73374512 206.53827637 124.77999023 205.82655273 124.82763672 205.09326172 C125.63584026 190.71529205 124.48084769 179.01145128 114.5625 167.875 C110.22294112 163.25100194 105.54023422 159.90581166 99.90234375 156.9453125 C96.94697649 154.68317954 96.57271375 152.82574029 95.6875 149.25 C95.42710937 148.23164063 95.16671875 147.21328125 94.8984375 146.1640625 C94.62257813 145.07867187 94.34671875 143.99328125 94.0625 142.875 C90.6206541 130.78375698 84.95549319 119.75024217 76.6875 110.25 C76.254375 109.67507812 75.82125 109.10015625 75.375 108.5078125 C60.82521309 89.71433774 34.35505205 79.86657973 11.68505859 76.57080078 C-12.85350836 73.94466648 -38.96833341 76.01652097 -60.89453125 88.015625 C-63.0674294 89.12489126 -64.93079077 89.78365134 -67.3125 90.25 C-67.68375 89.198125 -67.68375 89.198125 -68.0625 88.125 C-71.41421345 80.41605907 -76.43354372 75.40497571 -83.6875 71.375 C-94.4535442 68.03381387 -104.29218354 71.45164135 -111.12890625 80.515625 Z " fill="#34393B" transform="translate(239.3125,10.75)"/>
<path d="M0 0 C7.27323202 -0.1024358 14.54627424 -0.17189468 21.82006836 -0.21972656 C24.28823803 -0.23969219 26.75636133 -0.26687437 29.22436523 -0.30175781 C65.26163515 -0.79791784 65.26163515 -0.79791784 79 11 C80.29296875 13.21875 80.29296875 13.21875 81 15 C79.71937515 16.7074998 78.38232443 18.37373596 77 20 C76.34 20 75.68 20 75 20 C75.25394531 20.49886719 75.50789062 20.99773437 75.76953125 21.51171875 C79.47608481 29.24411699 83.92270468 40.43522461 82 49 C79.55699306 51.38445994 76.90944137 53.22705916 74 55 C74.969375 55.45375 75.93875 55.9075 76.9375 56.375 C80 58 80 58 81 60 C81.74121094 59.61328125 82.48242188 59.2265625 83.24609375 58.828125 C91.27192123 54.85941717 98.91547023 52.59435368 107.640625 50.76171875 C110.82391131 50.35383487 110.82391131 50.35383487 112 49 C112.04063832 47.33382885 112.042721 45.66611905 112 44 C104.63740707 43.77575859 98.12950371 44.09879901 91 46 C90.34 41.05 89.68 36.1 89 31 C96.88649294 32.12664185 96.88649294 32.12664185 99.76171875 33.3828125 C100.39956299 33.65915527 101.03740723 33.93549805 101.69458008 34.22021484 C102.68107544 34.6680835 102.68107544 34.6680835 103.6875 35.125 C104.38447998 35.43775879 105.08145996 35.75051758 105.79956055 36.07275391 C125.09315513 44.89584186 140.78747113 56.90914217 149 77 C151.88706158 88.10544546 150.34144262 98.94947698 145 109 C140.69391869 115.41309497 135.62966071 119.39028142 128.37109375 121.9140625 C125.79195696 122.81657694 123.3842373 123.66227907 121 125 C119.69889182 128.11095637 119.69889182 128.11095637 120 131 C121.32 131.33 122.64 131.66 124 132 C116.03255037 135.98372482 101.04910635 133.42106402 92.99609375 130.75390625 C92.33738281 130.50511719 91.67867188 130.25632812 91 130 C90.01 129.67 89.02 129.34 88 129 C87.979375 130.19625 87.95875 131.3925 87.9375 132.625 C86.99106552 140.93259152 82.48234043 150.08015957 76.5625 156 C63.44882651 165.77926695 47.80652855 166.5995481 32 165 C30.13037282 163.13037282 30.87113697 160.45336439 30.86105347 157.96618652 C30.86408981 156.69901794 30.86408981 156.69901794 30.8671875 155.40625 C30.86623077 154.54439087 30.86527405 153.68253174 30.86428833 152.79455566 C30.8636065 150.96866788 30.86546096 149.14277769 30.86962891 147.31689453 C30.87497714 144.51198922 30.86968401 141.70724405 30.86328125 138.90234375 C30.86394203 137.13281214 30.86522319 135.36328064 30.8671875 133.59375 C30.86516327 132.74897095 30.86313904 131.90419189 30.86105347 131.03381348 C30.88504969 125.11495031 30.88504969 125.11495031 32 124 C34.34987262 123.76472227 36.70556039 123.58613583 39.0625 123.4375 C40.35285156 123.35371094 41.64320313 123.26992188 42.97265625 123.18359375 C43.97167969 123.12300781 44.97070312 123.06242187 46 123 C48.20274334 118.27287381 48.95169674 113.40195063 49.875 108.3125 C51.0806964 101.90709377 52.35562927 95.95745771 55.265625 90.0703125 C57.00511364 85.16643494 55.81714237 80.84228424 54.25 76.0625 C51.92560342 68.36138536 50.5974302 60.5776244 49.30761719 52.64477539 C49.15067383 51.68434326 48.99373047 50.72391113 48.83203125 49.734375 C48.69514893 48.87038086 48.5582666 48.00638672 48.41723633 47.11621094 C48.08867947 44.95590014 48.08867947 44.95590014 47 43 C44.25063695 42.56845773 44.25063695 42.56845773 41.0625 42.4375 C35.18893387 42.09446694 35.18893387 42.09446694 33 41 C32.84144531 41.63164062 32.68289063 42.26328125 32.51953125 42.9140625 C31.15481513 48.14673093 29.60258448 53.24420242 27.74609375 58.32421875 C24.77487098 66.56672115 22.0058316 74.87095247 19.25 83.1875 C18.45846774 85.57178121 17.66656151 87.95593801 16.87463379 90.34008789 C16.34505548 91.93458526 15.81567614 93.52914873 15.28649902 95.1237793 C13.65495998 100.03804122 12.01179451 104.94818768 10.359375 109.85546875 C7.00307528 119.83354719 3.67320672 129.77250475 0.8984375 139.9296875 C-0.471849 144.61249265 -2.1560893 149.17263579 -3.8515625 153.74609375 C-4.67748573 156.08620958 -5.41188142 158.45936404 -6.0859375 160.84765625 C-7 164 -7 164 -8 165 C-9.68505074 165.11451986 -11.37487239 165.15961901 -13.0637207 165.17700195 C-14.68725212 165.19625481 -14.68725212 165.19625481 -16.34358215 165.21589661 C-17.52570786 165.22328354 -18.70783356 165.23067047 -19.92578125 165.23828125 C-21.13888474 165.246353 -22.35198822 165.25442474 -23.60185242 165.26274109 C-26.18190064 165.27661081 -28.76196744 165.28731995 -31.34204102 165.29516602 C-35.25768997 165.31226071 -39.17246868 165.35610804 -43.08789062 165.40039062 C-45.59634796 165.41052757 -48.10481249 165.41904052 -50.61328125 165.42578125 C-52.35306999 165.45204338 -52.35306999 165.45204338 -54.12800598 165.47883606 C-66.08843032 165.44751095 -77.13701878 162.23440911 -86.08984375 154.1015625 C-91.57054158 148.44736027 -94.40388323 142.3764664 -97 135 C-98.5627962 135.14262412 -100.12522696 135.28925511 -101.6875 135.4375 C-102.55761719 135.51871094 -103.42773438 135.59992188 -104.32421875 135.68359375 C-106.95057363 135.94654587 -106.95057363 135.94654587 -109.2890625 136.51953125 C-126.57019638 139.58232587 -147.16415998 136.45216001 -163 129 C-164.89453125 127.5078125 -164.89453125 127.5078125 -166 126 C-165.57894737 121.57894737 -165.57894737 121.57894737 -164 120 C-159.72102743 119.5924788 -156.99763582 120.36341403 -153.14257812 122.1394043 C-143.60951313 125.96848977 -133.70535056 126.47216408 -123.5625 126.375 C-121.75168945 126.39240234 -121.75168945 126.39240234 -119.90429688 126.41015625 C-102.88142099 126.35550817 -86.20155036 122.19751994 -73 111 C-71.26440482 108.89439142 -71.26440482 108.89439142 -70 107 C-70.59538574 107.01047363 -71.19077148 107.02094727 -71.80419922 107.03173828 C-74.49442343 107.07323949 -77.18458037 107.09930704 -79.875 107.125 C-80.81214844 107.14175781 -81.74929687 107.15851563 -82.71484375 107.17578125 C-83.61074219 107.18222656 -84.50664062 107.18867188 -85.4296875 107.1953125 C-86.25710449 107.20578613 -87.08452148 107.21625977 -87.93701172 107.22705078 C-90 107 -90 107 -92 105 C-91.63318342 102.06546739 -91.13562754 101.13562754 -89 99 C-86.78515625 98.69702148 -86.78515625 98.69702148 -84.0625 98.62109375 C-83.08539063 98.58693359 -82.10828125 98.55277344 -81.1015625 98.51757812 C-80.07804687 98.49115234 -79.05453125 98.46472656 -78 98.4375 C-75.9790447 98.37768583 -73.95819715 98.31407235 -71.9375 98.24609375 C-71.03902344 98.22216553 -70.14054687 98.1982373 -69.21484375 98.17358398 C-66.95964318 98.13647232 -66.95964318 98.13647232 -65 97 C-63.95023036 93.85069107 -63.89868405 91.61185544 -63.9375 88.3125 C-63.94652344 87.31863281 -63.95554687 86.32476562 -63.96484375 85.30078125 C-63.97644531 84.54152344 -63.98804688 83.78226562 -64 83 C-64.7520874 82.91435791 -65.5041748 82.82871582 -66.27905273 82.74047852 C-69.66573295 82.35229855 -73.05160761 81.95749016 -76.4375 81.5625 C-78.21350586 81.36043945 -78.21350586 81.36043945 -80.02539062 81.15429688 C-81.71245117 80.95610352 -81.71245117 80.95610352 -83.43359375 80.75390625 C-84.47572021 80.63345947 -85.51784668 80.5130127 -86.59155273 80.38891602 C-89 80 -89 80 -90 79 C-90.1875 76.5625 -90.1875 76.5625 -90 74 C-88 72 -88 72 -84.0625 71.8125 C-78.68572663 71.92634048 -73.34622907 72.44039471 -68 73 C-79.93903504 56.43669083 -104.22757109 53.29537392 -123.04199219 49.64819336 C-124.0065332 49.4600708 -124.97107422 49.27194824 -125.96484375 49.078125 C-126.8168335 48.91731445 -127.66882324 48.75650391 -128.54663086 48.59082031 C-131.19315174 47.9534852 -133.54908743 47.18932326 -136 46 C-136.9375 43.5 -136.9375 43.5 -137 41 C-134.50280335 38.50280335 -133.68510819 38.70278179 -130.23046875 38.6875 C-123.35995394 38.81313227 -116.95374115 40.34435089 -110.3125 42 C-109.12205078 42.28617187 -107.93160156 42.57234375 -106.70507812 42.8671875 C-103.80050534 43.56708456 -100.89918337 44.27816381 -98 45 C-98.05220703 43.21916016 -98.05220703 43.21916016 -98.10546875 41.40234375 C-98.09350965 30.53151976 -93.10616671 19.22851805 -85.8125 11.25 C-75.88310681 1.94659029 -63.97822015 0.68324544 -51 0.875 C-47.04 0.91625 -43.08 0.9575 -39 1 C-39 14.53 -39 28.06 -39 42 C-43.95 42.33 -48.9 42.66 -54 43 C-57.35211741 48.58686235 -57.71948262 51.70961031 -58 58 C-58.05285156 59.09828125 -58.10570312 60.1965625 -58.16015625 61.328125 C-58.31992952 67.41340249 -58.31042465 71.70332055 -55 77 C-52.70436611 85.87231476 -52.90984703 94.75661733 -57.16796875 102.8515625 C-59.4762342 108.81187236 -56.98018843 116.18319649 -55 122 C-53.12175109 123.87824891 -49.96064724 123.39102397 -47.4375 123.5625 C-45.64119141 123.68818359 -45.64119141 123.68818359 -43.80859375 123.81640625 C-42.88175781 123.87699219 -41.95492187 123.93757813 -41 124 C-40.23878832 122.29663288 -39.49194869 120.58684547 -38.75 118.875 C-38.33234375 117.92367187 -37.9146875 116.97234375 -37.484375 115.9921875 C-36.1459264 112.62624739 -35.17688537 109.19457517 -34.203125 105.70703125 C-31.9818224 97.77410731 -29.41451367 89.97507249 -26.79101562 82.16723633 C-25.99781684 79.80600105 -25.2094941 77.44317973 -24.421875 75.08007812 C-22.27285166 68.64905126 -20.11147666 62.22973624 -17.765625 55.8671875 C-16.23589157 51.71679992 -14.94287001 47.57211417 -13.75 43.3125 C-11.36753328 34.97386649 -8.6366895 26.76285568 -5.85449219 18.55004883 C-5.36577637 17.10408325 -5.36577637 17.10408325 -4.8671875 15.62890625 C-4.57956543 14.78400635 -4.29194336 13.93910645 -3.99560547 13.06860352 C-2.58943739 8.73458521 -1.29658098 4.36786262 0 0 Z " fill="#363A3B" transform="translate(264,224)"/>
<path d="M0 0 C7.88649294 1.12664185 7.88649294 1.12664185 10.76171875 2.3828125 C11.39956299 2.65915527 12.03740723 2.93549805 12.69458008 3.22021484 C13.35224365 3.51879395 14.00990723 3.81737305 14.6875 4.125 C15.38447998 4.43775879 16.08145996 4.75051758 16.79956055 5.07275391 C36.09315513 13.89584186 51.78747113 25.90914217 60 46 C62.88706158 57.10544546 61.34144262 67.94947698 56 78 C52.24367582 83.59433553 48.07923468 87.17001144 42 90 C41.10474609 90.44666016 41.10474609 90.44666016 40.19140625 90.90234375 C29.2687704 95.52264 13.81077923 94.17155068 3 90 C-4.42745125 86.59575151 -11.20067303 82.79932697 -17 77 C-17 76.34 -17 75.68 -17 75 C-7.1 74.505 -7.1 74.505 3 74 C3 72.35 3 70.7 3 69 C0.53879159 67.76939579 -1.25776866 67.7942277 -4.0078125 67.68359375 C-4.99394531 67.64169922 -5.98007812 67.59980469 -6.99609375 67.55664062 C-8.02863281 67.51732422 -9.06117188 67.47800781 -10.125 67.4375 C-11.16527344 67.39431641 -12.20554687 67.35113281 -13.27734375 67.30664062 C-15.85142528 67.2003712 -18.42560508 67.09833417 -21 67 C-23.54150194 61.49674778 -24.31924927 58.06573618 -24 52 C-17.31646197 49.46486489 -10.93790497 48.2937192 -3.84375 47.4296875 C-1.10588649 47.30372869 -1.10588649 47.30372869 0 46 C0.04063832 44.33382885 0.042721 42.66611905 0 41 C-10.04821399 40.83510632 -10.04821399 40.83510632 -20 42 C-13.90862114 31.59389446 -4.29108554 25.62092726 7.23291016 22.37011719 C11.01763507 21.40879234 14.81901349 20.56206317 18.640625 19.76171875 C21.82391131 19.35383487 21.82391131 19.35383487 23 18 C23.04063832 16.33382885 23.042721 14.66611905 23 13 C15.63740707 12.77575859 9.12950371 13.09879901 2 15 C1.34 10.05 0.68 5.1 0 0 Z " fill="#A57A53" transform="translate(353,255)"/>
<path d="M0 0 C8.91 0 17.82 0 27 0 C23.62509135 11.24969549 23.62509135 11.24969549 22.38110352 14.97021484 C22.09926712 15.81565353 21.81743073 16.66109222 21.52705383 17.53215027 C21.23066513 18.41615005 20.93427643 19.30014984 20.62890625 20.2109375 C20.31064377 21.16426468 19.99238129 22.11759186 19.66447449 23.09980774 C18.98438904 25.13629333 18.30361143 27.17254789 17.62219238 29.20858765 C16.54452969 32.42869615 15.46880793 35.64944753 14.39355469 38.87036133 C11.68907666 46.97009296 8.98122284 55.06869409 6.27099609 63.16650391 C0.63500456 80.00633153 -4.95726137 96.85873908 -10.4375 113.75 C-10.68334839 114.5071933 -10.92919678 115.2643866 -11.18249512 116.04452515 C-14.52359028 126.34219124 -17.78544906 136.66209751 -21 147 C-29.58 147 -38.16 147 -47 147 C-45.8751102 138.00088158 -45.8751102 138.00088158 -44.4765625 133.94140625 C-44.1775 133.06033203 -43.8784375 132.17925781 -43.5703125 131.27148438 C-43.25835937 130.37751953 -42.94640625 129.48355469 -42.625 128.5625 C-42.32078125 127.67240234 -42.0165625 126.78230469 -41.703125 125.86523438 C-41.09346768 124.08185646 -40.48115919 122.29938267 -39.86621094 120.51782227 C-38.54864399 116.68803989 -37.27405913 112.84443633 -36 109 C-34.16848046 103.47856294 -32.33536861 97.95765885 -30.5 92.4375 C-30.23943817 91.65353851 -29.97887634 90.86957703 -29.7104187 90.06185913 C-26.13098611 79.29987544 -22.48496305 68.56354511 -18.76846313 57.84817505 C-15.36792631 48.04258091 -12.07116647 38.24652276 -9.2578125 28.25390625 C-6.51856217 18.73749512 -3.16179064 9.37819259 0 0 Z " fill="#BCD3D2" transform="translate(271,233)"/>
<path d="M0 0 C9.45114507 3.21962085 15.48018291 8.59566075 20.03125 17.4765625 C21.19632463 21.21104278 21.19685186 24.78553927 21.15625 28.65625 C21.16398438 29.38585937 21.17171875 30.11546875 21.1796875 30.8671875 C21.16616623 34.65314294 20.86622198 37.40839783 19.7109375 41.078125 C18.56109771 44.16488129 18.56109771 44.16488129 19.9609375 46.3359375 C20.56164062 46.93664062 21.16234375 47.53734375 21.78125 48.15625 C25.32230241 52.26888961 27.72929377 56.40664862 30.03125 61.28125 C30.37349609 62.00538086 30.71574219 62.72951172 31.06835938 63.47558594 C33.4215627 68.68494998 34.91703655 73.86968525 36.28125 79.40625 C37.66546437 84.86157491 39.14101021 88.29744106 43.90625 91.59375 C45.55509 92.52198585 47.22002075 93.42280602 48.90625 94.28125 C52.94161103 97.24051475 56.05735833 100.17549436 58.90625 104.28125 C58.84375 106.84375 58.84375 106.84375 57.90625 109.28125 C57.555625 110.209375 57.205 111.1375 56.84375 112.09375 C56.534375 112.815625 56.225 113.5375 55.90625 114.28125 C52.00233774 112.18646781 49.5732566 109.94960029 46.78125 106.53125 C42.72671399 101.87023718 38.50399864 98.76460223 33.19140625 95.65625 C30.90625 94.28125 30.90625 94.28125 28.90625 92.28125 C28.48322716 90.48445001 28.06932073 88.684712 27.71533203 86.87304688 C25.0813849 73.42184332 19.2041707 61.20537432 10.90625 50.28125 C10.4215625 49.63285156 9.936875 48.98445313 9.4375 48.31640625 C-6.45847903 28.64123612 -33.57367015 17.9054058 -58.09375 15.28125 C-82.05011837 13.87083476 -106.34999939 15.20329656 -127.67578125 27.14453125 C-130.09375 28.28125 -130.09375 28.28125 -134.09375 28.28125 C-135.55078125 26.3046875 -135.55078125 26.3046875 -136.90625 23.65625 C-139.65774534 18.71336016 -142.64581606 15.67451919 -147.09375 12.28125 C-147.75375 11.62125 -148.41375 10.96125 -149.09375 10.28125 C-148.289375 10.054375 -147.485 9.8275 -146.65625 9.59375 C-145.810625 9.160625 -144.965 8.7275 -144.09375 8.28125 C-143.19988836 5.73349694 -143.19988836 5.73349694 -143.09375 3.28125 C-138.02745511 5.89115949 -132.68827971 10.09219058 -130.09375 15.28125 C-128.876875 14.86875 -127.66 14.45625 -126.40625 14.03125 C-125.15908203 13.62132813 -125.15908203 13.62132813 -123.88671875 13.203125 C-122.00907986 12.58337286 -120.13664367 11.94765277 -118.26953125 11.296875 C-93.21862435 2.95726451 -62.40799049 1.66504662 -36.90771484 8.90161133 C-34.99079982 9.44265161 -33.04276413 9.8706021 -31.09375 10.28125 C-28.44793376 8.22098281 -28.44793376 8.22098281 -26.09375 5.28125 C-17.62115899 -0.69069279 -10.41611044 -2.41990445 0 0 Z " fill="#373A3A" transform="translate(306.09375,72.71875)"/>
<path d="M0 0 C11.32844752 -0.33318963 21.16066525 -0.32046084 30.25 7.15625 C36.63543119 13.88375787 38.4096285 23.15428408 40 32 C40.28875 33.258125 40.5775 34.51625 40.875 35.8125 C39.54139674 40.67062616 35.99296713 42.23974918 31.90625 44.94140625 C27.9000179 47.77915399 25.0555952 51.20500421 22 55 C21.34 55.66 20.68 56.32 20 57 C18.37115146 55.37115146 18.50353409 53.35731823 18.16796875 51.1171875 C18.00876953 50.11429687 17.84957031 49.11140625 17.68554688 48.078125 C17.35734819 45.96735696 17.03684482 43.85537588 16.72460938 41.7421875 C15.74197004 35.65215398 14.58371765 31.06591543 11 26 C7.3436041 23.88313922 4.31917007 23.71986168 0 23 C0 15.41 0 7.82 0 0 Z " fill="#BCD3D2" transform="translate(306,234)"/>
<path d="M0 0 C0 7.59 0 15.18 0 23 C-2.84625 23.5878125 -2.84625 23.5878125 -5.75 24.1875 C-10.63094857 25.40996458 -10.63094857 25.40996458 -14.625 28.375 C-17.03455347 32.97505662 -18.33430434 37.17297824 -19.125 42.3125 C-19.29257813 43.38113281 -19.46015625 44.44976562 -19.6328125 45.55078125 C-19.75398438 46.35902344 -19.87515625 47.16726563 -20 48 C-22.11409841 46.94538079 -24.22528641 45.88565866 -26.33203125 44.81640625 C-31.16300695 42.37429097 -35.99668009 40.06658866 -41 38 C-41.54807193 28.50008653 -39.64664995 18.7832202 -34 11 C-23.89798074 0.43478771 -14.12312542 -0.13199183 0 0 Z " fill="#BBD2D2" transform="translate(216,234)"/>
<path d="M0 0 C1.83643808 2.26023148 3.65919037 4.5089518 5.3203125 6.90234375 C9.26551518 12.51832899 13.80911855 16.90455927 20 20 C18.58884579 28.7268747 16.66008139 38.69992301 10 45 C0.45021314 51.46738041 -7.64219856 52.25813185 -19 52 C-19 44.41 -19 36.82 -19 29 C-16.03 28.34 -13.06 27.68 -10 27 C-5.40427066 23.97649385 -4.26607293 19.11704474 -3 14 C-2.41084656 10.84105225 -1.89264914 7.68372176 -1.4296875 4.50390625 C-1 2 -1 2 0 0 Z " fill="#BCD2D2" transform="translate(324,328)"/>
<path d="M0 0 C0.15855469 0.60328125 0.31710938 1.2065625 0.48046875 1.828125 C1.5863602 5.61626147 2.50596393 8.43331157 5.125 11.4375 C8.81771291 13.61543735 8.81771291 13.61543735 17 15 C17 22.59 17 30.18 17 38 C4.6431473 38.39436764 -4.63104954 37.58639312 -14 29 C-16.3125 26.4375 -16.3125 26.4375 -18 24 C-18.556875 23.21625 -19.11375 22.4325 -19.6875 21.625 C-21.2832587 18.43348261 -21.55885146 15.52094254 -22 12 C-21.05898437 11.55269531 -20.11796875 11.10539062 -19.1484375 10.64453125 C-17.89041125 10.03429463 -16.63261071 9.42359253 -15.375 8.8125 C-14.44880859 8.37454102 -14.44880859 8.37454102 -13.50390625 7.92773438 C-10.22615581 6.32336179 -7.43564207 4.64999476 -4.6640625 2.26171875 C-2 0 -2 0 0 0 Z " fill="#BBD2D2" transform="translate(198,342)"/>
<path d="M0 0 C0.70535889 0.00161133 1.41071777 0.00322266 2.13745117 0.00488281 C7.99184856 0.14138951 13.33604182 1.09114572 18.3125 4.375 C20.5108456 6.85556564 21.25533573 7.99118275 21.75 11.3125 C21.16995238 15.37283334 20.40928892 16.63830281 17.3125 19.375 C9.72459123 23.40525604 1.79531782 24.60181049 -6.6875 23.375 C-12.12238727 21.54893562 -16.65725092 19.40617546 -19.6875 14.375 C-19.75 10.9375 -19.75 10.9375 -18.6875 7.375 C-13.05104411 1.61044284 -7.89931573 -0.01867671 0 0 Z " fill="#353A3A" transform="translate(295.6875,172.625)"/>
<path d="M0 0 C6.01409464 2.95011527 10.06622324 6.928345 12.3125 13.3125 C12.54643274 16.99439783 12.48945976 20.6291154 12.3125 24.3125 C7.87791259 24.3125 7.77216607 24.20321359 4.875 21.3125 C-2.54430458 14.4756455 -11.59793396 9.58994284 -20.6875 5.3125 C-19.39639977 2.39244153 -18.81315442 1.39626961 -16.0625 -0.4375 C-10.15273318 -2.62630253 -5.71573241 -2.33566474 0 0 Z " fill="#A27B59" transform="translate(305.6875,82.6875)"/>
<path d="M0 0 C3.75 0.375 3.75 0.375 6.625 2.6875 C10.63453232 7.75837911 10.24374148 13.16425196 9.75 19.375 C8.6821974 23.53574804 7.41787205 25.92975197 3.75 28.375 C0.875 28.875 0.875 28.875 -2.25 28.375 C-6.99794101 23.62705899 -8.40514925 20.14638679 -8.5625 13.5625 C-8.53198599 7.26135738 -7.14115342 0.82397924 0 0 Z " fill="#35393A" transform="translate(234.25,146.625)"/>
<path d="M0 0 C3.125 0.375 3.125 0.375 5.375 2.125 C8.52388222 6.17356286 9.56623949 8.91539565 9.45703125 14.20703125 C8.85258647 18.15370008 6.98706372 22.51293628 4.125 25.375 C0.8125 25.75 0.8125 25.75 -2.875 25.375 C-6.67359117 21.67637176 -8.01668224 18.28883172 -8.125 13.0625 C-8.06920582 7.35289598 -6.37486345 0.83150393 0 0 Z " fill="#373A3C" transform="translate(309.875,143.625)"/>
<path d="M0 0 C7.88058835 1.12579834 7.88058835 1.12579834 10.9375 2.48828125 C11.60523438 2.78283203 12.27296875 3.07738281 12.9609375 3.38085938 C13.63382812 3.68830078 14.30671875 3.99574219 15 4.3125 C15.67289062 4.60833984 16.34578125 4.90417969 17.0390625 5.20898438 C21.52942213 7.21577637 25.764128 9.50149738 30 12 C27.83864045 15.98145181 25.53795672 19.1359398 22 22 C19.1875 21.8125 19.1875 21.8125 17 21 C17 20.67 17 20.34 17 20 C18.98 19.34 20.96 18.68 23 18 C23 16.35 23 14.7 23 13 C15.63740707 12.77575859 9.12950371 13.09879901 2 15 C1.34 10.05 0.68 5.1 0 0 Z " fill="#927458" transform="translate(353,255)"/>
<path d="M0 0 C-0.66 0 -1.32 0 -2 0 C-2.33 0.99 -2.66 1.98 -3 3 C-3.66 3 -4.32 3 -5 3 C-5.11320856 8.08303686 -5.11320856 8.08303686 -4 13 C-1.0804957 13.9731681 1.05444951 14.1929546 4.10546875 14.31640625 C5.08837891 14.35830078 6.07128906 14.40019531 7.08398438 14.44335938 C8.62022461 14.50233398 8.62022461 14.50233398 10.1875 14.5625 C11.22326172 14.60568359 12.25902344 14.64886719 13.32617188 14.69335938 C15.8839819 14.79944366 18.44188845 14.90150146 21 15 C23.15625 20.6484375 23.15625 20.6484375 21.75 23.8125 C20 26 20 26 18 27 C15.7927077 27.07092842 13.58332548 27.08415025 11.375 27.0625 C10.18648438 27.05347656 8.99796875 27.04445313 7.7734375 27.03515625 C6.85820312 27.02355469 5.94296875 27.01195312 5 27 C6.94582571 29.91873857 7.62691827 30.54874491 10.5625 32.0625 C14 34 14 34 15 36 C9.00432721 34.6163832 4.4130193 31.17146456 0 27 C-0.33 26.01 -0.66 25.02 -1 24 C8.9 23.505 8.9 23.505 19 23 C19 21.35 19 19.7 19 18 C16.53879159 16.76939579 14.74223134 16.7942277 11.9921875 16.68359375 C11.00605469 16.64169922 10.01992188 16.59980469 9.00390625 16.55664062 C7.97136719 16.51732422 6.93882812 16.47800781 5.875 16.4375 C4.31458984 16.37272461 4.31458984 16.37272461 2.72265625 16.30664062 C0.14857472 16.2003712 -2.42560508 16.09833417 -5 16 C-7.54150194 10.49674778 -8.31924927 7.06573618 -8 1 C-4.93251126 -0.86240388 -3.40254489 -1.2151946 0 0 Z " fill="#97785B" transform="translate(337,306)"/>
<path d="M0 0 C1.30457818 3.91373453 0.37656943 5.7321875 -0.875 9.625 C-1.24367188 10.79289062 -1.61234375 11.96078125 -1.9921875 13.1640625 C-3 16 -3 16 -4 17 C-5.68505074 17.11451986 -7.37487239 17.15961901 -9.0637207 17.17700195 C-10.14607498 17.18983719 -11.22842926 17.20267242 -12.34358215 17.21589661 C-14.11677071 17.22697701 -14.11677071 17.22697701 -15.92578125 17.23828125 C-17.13888474 17.246353 -18.35198822 17.25442474 -19.60185242 17.26274109 C-22.18190064 17.27661081 -24.76196744 17.28731995 -27.34204102 17.29516602 C-31.25768997 17.31226071 -35.17246868 17.35610804 -39.08789062 17.40039062 C-41.59634796 17.41052757 -44.10481249 17.41904052 -46.61328125 17.42578125 C-48.35306999 17.45204338 -48.35306999 17.45204338 -50.12800598 17.47883606 C-58.08447631 17.45799756 -64.6162181 15.9476241 -72 13 C-72 12.67 -72 12.34 -72 12 C-67.38890067 12.44623542 -62.78660914 12.90162346 -58.18945312 13.4765625 C-46.57904979 14.91735906 -35.06569008 15.41459388 -23.375 15.625 C-21.57810919 15.66332847 -19.78123382 15.70238779 -17.984375 15.7421875 C-13.65638054 15.83650363 -9.32830168 15.92109366 -5 16 C-4.81171631 15.09616577 -4.81171631 15.09616577 -4.61962891 14.17407227 C-4.36318604 12.97609009 -4.36318604 12.97609009 -4.1015625 11.75390625 C-3.93479004 10.9657251 -3.76801758 10.17754395 -3.59619141 9.36547852 C-2.75742401 6.0375435 -1.45316485 3.10448855 0 0 Z " fill="#3F3930" transform="translate(260,372)"/>
<path d="M0 0 C7.2715736 0.48477157 7.2715736 0.48477157 10.5625 2.8125 C12 5 12 5 11.875 7.1875 C11 9 11 9 9 10 C8.67 10.33 8.34 10.66 8 11 C6.00041636 11.04080783 3.99954746 11.04254356 2 11 C0.57741188 7.17679443 -0.24042276 4.08718695 0 0 Z " fill="#A37A55" transform="translate(355,256)"/>
<path d="M0 0 C2.475 0.495 2.475 0.495 5 1 C6.27646101 4.82938303 6.58716338 6.95509669 6 11 C3.21149888 15.29000173 0.33745165 19.37336403 -4.75390625 20.73828125 C-24.79730488 22.35429534 -24.79730488 22.35429534 -34 17 C-33.67 16.34 -33.34 15.68 -33 15 C-32.25169922 15.433125 -32.25169922 15.433125 -31.48828125 15.875 C-23.79100734 19.85491901 -16.23051464 20.26253802 -7.828125 18.234375 C-2.99330617 16.62276872 0.30368686 15.51978132 3 11 C3.59490938 6.33987653 2.68609622 3.80530297 0 0 Z " fill="#99795B" transform="translate(313,176)"/>
<path d="M0 0 C0.66 0 1.32 0 2 0 C2.01981934 1.11036621 2.03963867 2.22073242 2.06005859 3.36474609 C2.13601081 7.47614602 2.2247436 11.58718718 2.31738281 15.69824219 C2.35571565 17.47909473 2.39056089 19.26002584 2.421875 21.04101562 C2.46743271 23.59794234 2.52544107 26.1543261 2.5859375 28.7109375 C2.60326431 29.90944839 2.60326431 29.90944839 2.62094116 31.13217163 C2.57258944 35.53457212 2.57258944 35.53457212 5 39 C3.35 39 1.7 39 0 39 C0 26.13 0 13.26 0 0 Z " fill="#4B4035" transform="translate(295,349)"/>
<path d="M0 0 C0.33 0 0.66 0 1 0 C2.30200648 5.98922981 2.18383378 11.96557993 2.1875 18.0625 C2.19974609 19.13822266 2.21199219 20.21394531 2.22460938 21.32226562 C2.22654297 22.36189453 2.22847656 23.40152344 2.23046875 24.47265625 C2.23457764 25.41375244 2.23868652 26.35484863 2.24291992 27.32446289 C1.8343668 31.82429575 0.77282472 34.31917822 -2.625 37.3125 C-3.40875 37.869375 -4.1925 38.42625 -5 39 C-4.67 37.68 -4.34 36.36 -4 35 C-3.34 35 -2.68 35 -2 35 C-0.8513433 31.28832638 -0.79457567 27.69663773 -0.68359375 23.828125 C-0.66281265 23.1457074 -0.64203156 22.46328979 -0.62062073 21.76019287 C-0.55547948 19.59022644 -0.49640596 17.42014376 -0.4375 15.25 C-0.39428103 13.77472779 -0.35066568 12.29946713 -0.30664062 10.82421875 C-0.19983482 7.21626834 -0.09846847 3.60818867 0 0 Z " fill="#8F745B" transform="translate(391,370)"/>
<path d="M0 0 C2.00720923 0.28674418 4.0085944 0.61866701 6 1 C6.33 2.65 6.66 4.3 7 6 C6.01 5.67 5.02 5.34 4 5 C-5.33969981 2.68175308 -16.33481311 2.66740655 -25 7 C-25 6.34 -25 5.68 -25 5 C-18.5047939 0.7317217 -10.73568943 0.92834583 -3.16015625 1.04296875 C-1.01897157 1.24993967 -1.01897157 1.24993967 0 0 Z " fill="#9B7A5B" transform="translate(305,170)"/>
<path d="M0 0 C5.65253308 1.37031105 8.5113541 5.67689413 12 10 C8.99565697 11.00144768 7.94697698 11.0049095 4.9375 10.5625 C-0.05797331 9.92163336 -4.97090243 9.90550756 -10 10 C-10 9.34 -10 8.68 -10 8 C-4.72 8 0.56 8 6 8 C6 7.34 6 6.68 6 6 C4.68 5.34 3.36 4.68 2 4 C2 3.34 2 2.68 2 2 C1.34 2 0.68 2 0 2 C0 1.34 0 0.68 0 0 Z " fill="#9C7B5E" transform="translate(185,287)"/>
<path d="M0 0 C1 3 1 3 -0.58203125 6.3203125 C-1.31498156 7.59466168 -2.05895635 8.86271875 -2.8125 10.125 C-3.36647461 11.09373047 -3.36647461 11.09373047 -3.93164062 12.08203125 C-6.72182642 16.86091321 -6.72182642 16.86091321 -9 18 C-9.79275148 16.5839401 -10.58415312 15.16712447 -11.375 13.75 C-12.03628906 12.56664062 -12.03628906 12.56664062 -12.7109375 11.359375 C-13.85747823 9.26085803 -14.94649552 7.1463923 -16 5 C-13.625 5.6875 -13.625 5.6875 -11 7 C-9.6875 9.625 -9.6875 9.625 -9 12 C-8.01 12 -7.02 12 -6 12 C-6 11.34 -6 10.68 -6 10 C-5.34 10 -4.68 10 -4 10 C-3.855625 9.236875 -3.71125 8.47375 -3.5625 7.6875 C-3 5 -3 5 -2 2 C-1.34 2 -0.68 2 0 2 C0 1.34 0 0.68 0 0 Z " fill="#987A5E" transform="translate(359,230)"/>
<path d="M0 0 C0.66 0 1.32 0 2 0 C2 0.66 2 1.32 2 2 C2.66 2 3.32 2 4 2 C4 3.32 4 4.64 4 6 C4.66 6 5.32 6 6 6 C6.02468857 10.5206665 6.04285449 15.0412939 6.05493164 19.56201172 C6.05996552 21.10043013 6.06679308 22.63884375 6.07543945 24.17724609 C6.08754639 26.38640526 6.09323769 28.59550126 6.09765625 30.8046875 C6.10281754 31.49432587 6.10797882 32.18396423 6.11329651 32.89450073 C6.11387171 37.77225659 6.11387171 37.77225659 5 40 C4.34 40 3.68 40 3 40 C3.15855469 38.88109375 3.31710937 37.7621875 3.48046875 36.609375 C5.02894771 24.10052541 5.29999165 11.64105308 0 0 Z " fill="#473F36" transform="translate(359,186)"/>
<path d="M0 0 C0.33 0 0.66 0 1 0 C1.20992381 4.62532119 0.52637668 8.28390394 -0.875 12.6875 C-1.22304687 13.80511719 -1.57109375 14.92273438 -1.9296875 16.07421875 C-3 19 -3 19 -5 22 C-5.66158043 24.04584079 -5.66158043 24.04584079 -6.125 26.1875 C-6.41375 27.445625 -6.7025 28.70375 -7 30 C-7.66 29.67 -8.32 29.34 -9 29 C-6.52891267 19.1590031 -3.26306008 9.59909908 0 0 Z " fill="#443D33" transform="translate(238,304)"/>
<path d="M0 0 C0.83265381 0.00523682 1.66530762 0.01047363 2.52319336 0.01586914 C3.42231445 0.0190918 4.32143555 0.02231445 5.24780273 0.02563477 C6.66609375 0.03820312 6.66609375 0.03820312 8.11303711 0.05102539 C9.06243164 0.05553711 10.01182617 0.06004883 10.98999023 0.06469727 C13.34356776 0.07652429 15.69702188 0.09300514 18.05053711 0.11352539 C18.05053711 0.44352539 18.05053711 0.77352539 18.05053711 1.11352539 C8.64553711 1.60852539 8.64553711 1.60852539 -0.94946289 2.11352539 C-0.94946289 3.10352539 -0.94946289 4.09352539 -0.94946289 5.11352539 C4.99053711 5.44352539 10.93053711 5.77352539 17.05053711 6.11352539 C17.05053711 6.44352539 17.05053711 6.77352539 17.05053711 7.11352539 C13.92561459 7.17144383 10.80082945 7.20709285 7.67553711 7.23852539 C6.78608398 7.2552832 5.89663086 7.27204102 4.98022461 7.28930664 C4.12944336 7.29575195 3.27866211 7.30219727 2.40209961 7.30883789 C1.22381592 7.32454834 1.22381592 7.32454834 0.02172852 7.34057617 C-1.94946289 7.11352539 -1.94946289 7.11352539 -3.94946289 5.11352539 C-3.20294708 0.18652103 -3.20294708 0.18652103 0 0 Z " fill="#3A352E" transform="translate(175.949462890625,323.886474609375)"/>
<path d="M0 0 C0.74056641 0.00902344 1.48113281 0.01804688 2.24414062 0.02734375 C4.05873467 0.05075787 5.87316071 0.08662385 7.6875 0.125 C7.6875 0.455 7.6875 0.785 7.6875 1.125 C6.70910156 1.13917969 5.73070312 1.15335938 4.72265625 1.16796875 C-3.12036108 1.4533096 -10.09909417 1.76913444 -16.3125 7.125 C-18.27795339 10.14877445 -18.41079565 11.3877826 -17.9375 14.9375 C-17.73125 15.659375 -17.525 16.38125 -17.3125 17.125 C-18.875 16.0625 -18.875 16.0625 -20.3125 14.125 C-20.375 10.75 -20.375 10.75 -19.3125 7.125 C-13.37302454 1.05053646 -8.26885662 -0.19212714 0 0 Z " fill="#493F32" transform="translate(296.3125,172.875)"/>
<path d="M0 0 C0.33 0 0.66 0 1 0 C0.97679687 0.80824219 0.95359375 1.61648437 0.9296875 2.44921875 C0.91164062 3.51785156 0.89359375 4.58648437 0.875 5.6875 C0.85179687 6.74324219 0.82859375 7.79898438 0.8046875 8.88671875 C1.07343984 13.17063107 1.95267383 15.95267383 5 19 C5 19.33 5 19.66 5 20 C7.31 20.33 9.62 20.66 12 21 C11.67 21.66 11.34 22.32 11 23 C8.3125 23.375 8.3125 23.375 5 23 C1.29416957 19.29416957 -0.88486424 16.46864615 -1.1328125 11.15234375 C-1.13023437 10.09144531 -1.12765625 9.03054687 -1.125 7.9375 C-1.12757813 6.87402344 -1.13015625 5.81054688 -1.1328125 4.71484375 C-1 2 -1 2 0 0 Z " fill="#443A31" transform="translate(227,152)"/>
<path d="M0 0 C2 3 2 3 2.4375 5.0625 C2.88776695 7.39057818 2.88776695 7.39057818 6 9 C8.50896686 9.45601261 8.50896686 9.45601261 11.1875 9.625 C12.08855469 9.69976562 12.98960937 9.77453125 13.91796875 9.8515625 C14.60503906 9.90054687 15.29210937 9.94953125 16 10 C16.66 7.69 17.32 5.38 18 3 C18.66 3 19.32 3 20 3 C19.01 5.97 18.02 8.94 17 12 C14.72843079 11.93998496 12.45760726 11.85120032 10.1875 11.75 C8.92292969 11.70359375 7.65835938 11.6571875 6.35546875 11.609375 C3 11 3 11 1.0625 9.1875 C-0.44366969 6.0865624 -0.19572189 3.39251283 0 0 Z " fill="#9A7C5F" transform="translate(207,337)"/>
<path d="M0 0 C-0.72445312 0.25394531 -1.44890625 0.50789063 -2.1953125 0.76953125 C-11.28540687 3.68331379 -11.28540687 3.68331379 -19 9 C-22.125 9.125 -22.125 9.125 -25 9 C-22.27320247 5.55018797 -18.47910885 4.38327174 -14.5 2.875 C-13.82324219 2.61074219 -13.14648438 2.34648438 -12.44921875 2.07421875 C-3.95340098 -1.22691754 -3.95340098 -1.22691754 0 0 Z " fill="#93775A" transform="translate(201,92)"/>
<path d="M0 0 C0.33 0 0.66 0 1 0 C1.19441368 2.2910905 1.38033135 4.58290337 1.5625 6.875 C1.66691406 8.15117187 1.77132812 9.42734375 1.87890625 10.7421875 C2 14 2 14 1 16 C0.84995027 17.3734635 0.75161994 18.7528526 0.68359375 20.1328125 C0.64169922 20.93847656 0.59980469 21.74414062 0.55664062 22.57421875 C0.49766602 23.83685547 0.49766602 23.83685547 0.4375 25.125 C0.39431641 25.97449219 0.35113281 26.82398438 0.30664062 27.69921875 C0.20045764 29.79928223 0.09971503 31.89961948 0 34 C-0.66 34 -1.32 34 -2 34 C-1.34 22.78 -0.68 11.56 0 0 Z " fill="#896F55" transform="translate(109,211)"/>
<path d="M0 0 C0.33 0 0.66 0 1 0 C1 4.29 1 8.58 1 13 C1.66 13 2.32 13 3 13 C4 14.66666667 5 16.33333333 6 18 C6.86625 18.845625 7.7325 19.69125 8.625 20.5625 C10.88661207 22.88362818 11.6512354 23.86111862 12 27 C10.8439452 25.87897716 9.69573234 24.74920079 8.578125 23.58984375 C6.99101185 21.94843438 6.99101185 21.94843438 5.109375 20.37890625 C1.7027344 17.15921544 0.13820006 15.12620923 -0.4453125 10.37109375 C-0.438282 6.88747932 -0.30696883 3.46923501 0 0 Z " fill="#92785C" transform="translate(73,372)"/>
<path d="M0 0 C2.43787385 0.1409349 4.87517853 0.28754542 7.3125 0.4375 C8.00279297 0.47681641 8.69308594 0.51613281 9.40429688 0.55664062 C12.47161535 0.74927415 15.06968152 1.02322717 18 2 C20.22574335 2.22451458 22.45581519 2.40782878 24.6875 2.5625 C25.86699219 2.64628906 27.04648438 2.73007812 28.26171875 2.81640625 C29.61716797 2.90728516 29.61716797 2.90728516 31 3 C31 3.33 31 3.66 31 4 C9.27659574 4.57446809 9.27659574 4.57446809 0 1 C0 0.67 0 0.34 0 0 Z " fill="#9A7A5D" transform="translate(115,347)"/>
<path d="M0 0 C0.99 0.33 1.98 0.66 3 1 C-8.47138513 9.27481338 -8.47138513 9.27481338 -13 11 C-15.1640625 10.5625 -15.1640625 10.5625 -17 10 C-16.02417969 9.44570313 -15.04835938 8.89140625 -14.04296875 8.3203125 C-12.75777981 7.58859909 -11.47262536 6.85682508 -10.1875 6.125 C-9.54490234 5.76019531 -8.90230469 5.39539063 -8.24023438 5.01953125 C-5.43231202 3.41916099 -2.69035702 1.79357134 0 0 Z " fill="#3F3B35" transform="translate(361,428)"/>
<path d="M0 0 C0.33 0 0.66 0 1 0 C1 1.65 1 3.3 1 5 C0.01 5.33 -0.98 5.66 -2 6 C-3.09554988 7.83077674 -3.09554988 7.83077674 -4 10 C-4.79144263 11.40787979 -5.60425519 12.80395021 -6.4375 14.1875 C-7.05431641 15.22970703 -7.05431641 15.22970703 -7.68359375 16.29296875 C-9 18 -9 18 -12 19 C-10.25553155 13.41770097 -6.58237988 8.46471749 -2.37109375 4.4453125 C-0.74226655 2.93262694 -0.74226655 2.93262694 0 0 Z " fill="#98795B" transform="translate(138,127)"/>
<path d="M0 0 C0.66 0 1.32 0 2 0 C0.56605749 5.91882653 -0.90048636 11.82805394 -2.5625 17.6875 C-2.79066406 18.49574219 -3.01882812 19.30398437 -3.25390625 20.13671875 C-4 22 -4 22 -6 23 C-6.54784591 17.79546385 -5.02027926 14.16100918 -3.0234375 9.48046875 C-1.73821807 6.36552854 -0.84971187 3.25722885 0 0 Z " fill="#997B5D" transform="translate(259,234)"/>
<path d="M0 0 C7.49076746 -0.60409415 12.71226963 0.7804456 19 5 C19.99 6.485 19.99 6.485 21 8 C17.50509579 7.35279552 14.98833118 5.88736706 12 4 C9.43106162 2.71553081 7.23423663 2.67022856 4.375 2.4375 C3.37210938 2.35371094 2.36921875 2.26992187 1.3359375 2.18359375 C0.56507813 2.12300781 -0.20578125 2.06242187 -1 2 C-0.67 1.34 -0.34 0.68 0 0 Z " fill="#91765D" transform="translate(143,81)"/>
<path d="M0 0 C0.66 0.33 1.32 0.66 2 1 C-0.97 7.6 -3.94 14.2 -7 21 C-7.33 21 -7.66 21 -8 21 C-7.84044882 12.86289005 -4.01166953 6.87116243 0 0 Z " fill="#3C382F" transform="translate(125,143)"/>
<path d="M0 0 C0.66 1.32 1.32 2.64 2 4 C-0.23819488 6.01483592 -1.52758269 6.95418793 -4.56542969 7.2487793 C-5.50805664 7.19117432 -6.45068359 7.13356934 -7.421875 7.07421875 C-8.44667969 7.01943359 -9.47148437 6.96464844 -10.52734375 6.90820312 C-11.59082031 6.83537109 -12.65429688 6.76253906 -13.75 6.6875 C-15.36841797 6.5956543 -15.36841797 6.5956543 -17.01953125 6.50195312 C-19.68087106 6.34886721 -22.34043997 6.1810454 -25 6 C-25 5.67 -25 5.34 -25 5 C-24.34402832 4.97494385 -23.68805664 4.9498877 -23.01220703 4.92407227 C-20.04959817 4.8082674 -17.08731969 4.68547114 -14.125 4.5625 C-13.09246094 4.52318359 -12.05992187 4.48386719 -10.99609375 4.44335938 C-10.00996094 4.40146484 -9.02382812 4.35957031 -8.0078125 4.31640625 C-7.09660645 4.27974854 -6.18540039 4.24309082 -5.24658203 4.20532227 C-2.96516519 4.13422935 -2.96516519 4.13422935 -1 3 C-0.67 2.01 -0.34 1.02 0 0 Z " fill="#4E4339" transform="translate(200,318)"/>
<path d="M0 0 C1.65 0 3.3 0 5 0 C5.061875 0.61875 5.12375 1.2375 5.1875 1.875 C5.455625 2.57625 5.72375 3.2775 6 4 C6.78375 4.28875 7.5675 4.5775 8.375 4.875 C11 6 11 6 12.875 9 C13.24625 9.99 13.6175 10.98 14 12 C13.67 12.66 13.34 13.32 13 14 C11.96939453 12.86111328 11.96939453 12.86111328 10.91796875 11.69921875 C10.00785258 10.69527617 9.0976941 9.69137193 8.1875 8.6875 C7.73568359 8.18798828 7.28386719 7.68847656 6.81835938 7.17382812 C4.59780179 4.72635224 2.36844075 2.30549215 0 0 Z " fill="#423C34" transform="translate(345,171)"/>
<path d="M0 0 C1.52644141 3.93763547 0.42982376 6.7673759 -0.8125 10.6875 C-1.16957031 11.84636719 -1.52664063 13.00523437 -1.89453125 14.19921875 C-3 17 -3 17 -5 18 C-3.7 3.7 -3.7 3.7 0 0 Z " fill="#9C7B5D" transform="translate(279,319)"/>
<path d="M0 0 C0.556875 0.165 1.11375 0.33 1.6875 0.5 C4.6922349 1.14967241 6.95967283 0.50672119 10 0 C13.33514914 -0.08986929 16.66444286 -0.05932809 20 0 C20 0.33 20 0.66 20 1 C19.44538086 1.08564209 18.89076172 1.17128418 18.31933594 1.25952148 C15.79592464 1.65027558 13.27296253 2.04385926 10.75 2.4375 C9.87730469 2.57220703 9.00460937 2.70691406 8.10546875 2.84570312 C6.83896484 3.04389648 6.83896484 3.04389648 5.546875 3.24609375 C4.77182617 3.36654053 3.99677734 3.4869873 3.19824219 3.61108398 C1.10003354 3.98230193 -0.94043752 4.45639038 -3 5 C-1.125 1.125 -1.125 1.125 0 0 Z " fill="#433D33" transform="translate(332,302)"/>
<path d="M0 0 C1.37584894 4.12754682 -0.01529024 7.08649935 -1.3125 11.0625 C-1.53873047 11.79533203 -1.76496094 12.52816406 -1.99804688 13.28320312 C-3.73531208 18.73531208 -3.73531208 18.73531208 -6 21 C-6 19.02 -6 17.04 -6 15 C-5.34 15 -4.68 15 -4 15 C-3.96261719 14.33613281 -3.92523438 13.67226563 -3.88671875 12.98828125 C-3.5100897 7.92963621 -3.18794705 4.15819181 0 0 Z " fill="#937559" transform="translate(251,261)"/>
<path d="M0 0 C3 0.25 3 0.25 5 2.25 C2.69 2.25 0.38 2.25 -2 2.25 C-4.81532819 7.29140164 -6.5188509 11.47621075 -7 17.25 C-7.33 17.25 -7.66 17.25 -8 17.25 C-8.34889612 11.43506473 -8.22411698 7.33418446 -5 2.25 C-3 0.25 -3 0.25 0 0 Z " fill="#484037" transform="translate(310,143.75)"/>
<path d="M0 0 C0.66 0.33 1.32 0.66 2 1 C1.45730469 1.50789063 0.91460937 2.01578125 0.35546875 2.5390625 C-3.71094239 6.45160944 -6.89477656 9.7369414 -9 15 C-9.66 15 -10.32 15 -11 15 C-9.37956629 8.3562218 -5.62049485 3.74699657 0 0 Z " fill="#967A5D" transform="translate(136,84)"/>
<path d="M0 0 C1.93719378 -0.05406122 3.87481921 -0.09282025 5.8125 -0.125 C6.89144531 -0.14820313 7.97039062 -0.17140625 9.08203125 -0.1953125 C12 0 12 0 15 2 C15.1875 4.625 15.1875 4.625 15 7 C14.01 7.33 13.02 7.66 12 8 C12.33 6.02 12.66 4.04 13 2 C8.71 1.67 4.42 1.34 0 1 C0 0.67 0 0.34 0 0 Z " fill="#4F4339" transform="translate(342,322)"/>
<path d="M0 0 C0.88935377 3.303314 1.46274105 6.62294375 2 10 C0.02 11.32 -1.96 12.64 -4 14 C-3.52188823 12.22888156 -3.0424722 10.45811517 -2.5625 8.6875 C-2.29566406 7.70136719 -2.02882813 6.71523437 -1.75390625 5.69921875 C-1.21920575 3.78482474 -0.62855462 1.88566385 0 0 Z " fill="#465053" transform="translate(292,249)"/>
<path d="M0 0 C5.94 0 11.88 0 18 0 C18 0.33 18 0.66 18 1 C13.38 1 8.76 1 4 1 C4.33 2.65 4.66 4.3 5 6 C3.2925002 4.71937515 1.62626404 3.38232443 0 2 C0 1.34 0 0.68 0 0 Z " fill="#7A6550" transform="translate(336,330)"/>
<path d="M0 0 C2.125 0.375 2.125 0.375 4 1 C2.62845496 3.95409701 1.01136276 6.44008376 -1 9 C-2 8 -2 8 -2.1875 5.0625 C-2 2 -2 2 0 0 Z " fill="#B7C9C9" transform="translate(327,282)"/>
<path d="M0 0 C2.31423803 3.47135705 4.42898948 7.04070232 6.5625 10.625 C7.66372929 12.4444223 8.82029945 14.23044918 10 16 C5.31190502 14.1582484 2.91927719 10.88451823 0.75 6.4375 C0 4 0 4 0 0 Z " fill="#977D60" transform="translate(168,362)"/>
<path d="M0 0 C0.99 0 1.98 0 3 0 C4.71767682 3.98188718 6.41037341 7.96479403 8 12 C7.01 12.495 7.01 12.495 6 13 C4.99759911 11.02204824 3.99813957 9.04260558 3 7.0625 C2.1646875 5.40927734 2.1646875 5.40927734 1.3125 3.72265625 C0 1 0 1 0 0 Z " fill="#423C33" transform="translate(168,361)"/>
<path d="M0 0 C0 0.66 0 1.32 0 2 C-5.64399358 4.44064587 -10.97751478 4.19289099 -17 4 C-14.52000933 1.52000933 -13.04581838 1.45277898 -9.625 0.875 C-8.19027344 0.62363281 -8.19027344 0.62363281 -6.7265625 0.3671875 C-4 0 -4 0 0 0 Z " fill="#9B7B60" transform="translate(167,358)"/>
<path d="M0 0 C0.66 0 1.32 0 2 0 C0.75971762 6.17222879 -0.89603589 12.06682122 -3 18 C-3.33 18 -3.66 18 -4 18 C-3.65226572 11.36906706 -3.03910346 5.946072 0 0 Z " fill="#9D7B5E" transform="translate(267,355)"/>
<path d="M0 0 C2.66666667 2.66666667 5.33333333 5.33333333 8 8 C7.67 8.99 7.34 9.98 7 11 C6.01 11 5.02 11 4 11 C3.67 8.69 3.34 6.38 3 4 C1.35 3.67 -0.3 3.34 -2 3 C-1.34 2.67 -0.68 2.34 0 2 C0 1.34 0 0.68 0 0 Z " fill="#9A775B" transform="translate(398,279)"/>
<path d="M0 0 C-1.71525694 1.98608699 -2.88299954 2.95689457 -5.375 3.875 C-8.68598256 5.29399252 -10.58036582 7.37296861 -13 10 C-13.66 9.67 -14.32 9.34 -15 9 C-13.89902432 7.87187697 -12.79408444 6.74762189 -11.6875 5.625 C-11.07261719 4.99851563 -10.45773438 4.37203125 -9.82421875 3.7265625 C-6.48548503 0.56656185 -4.51237585 -0.24391221 0 0 Z " fill="#3D382E" transform="translate(190,230)"/>
<path d="M0 0 C1.134375 0.020625 2.26875 0.04125 3.4375 0.0625 C0.4271755 3.0728245 -1.79153621 3.04069673 -6.015625 3.16015625 C-7.89507812 3.14275391 -7.89507812 3.14275391 -9.8125 3.125 C-11.07578125 3.11597656 -12.3390625 3.10695313 -13.640625 3.09765625 C-14.60484375 3.08605469 -15.5690625 3.07445312 -16.5625 3.0625 C-16.5625 2.7325 -16.5625 2.4025 -16.5625 2.0625 C-15.70785156 2.00191406 -14.85320312 1.94132812 -13.97265625 1.87890625 C-12.31556641 1.75322266 -12.31556641 1.75322266 -10.625 1.625 C-9.52285156 1.54378906 -8.42070312 1.46257812 -7.28515625 1.37890625 C-3.70309481 0.96262651 -3.91990531 0.06877027 0 0 Z " fill="#9F7E60" transform="translate(388.5625,344.9375)"/>
<path d="M0 0 C1.5625 1.75 1.5625 1.75 3 4 C2.79504916 7.38168878 1.36968194 8.73919534 -1 11 C-1.0270043 9.54176788 -1.04639787 8.08339325 -1.0625 6.625 C-1.07410156 5.81289063 -1.08570313 5.00078125 -1.09765625 4.1640625 C-1 2 -1 2 0 0 Z " fill="#B7C7C7" transform="translate(324,328)"/>
<path d="M0 0 C0.66 0.33 1.32 0.66 2 1 C-1.75 5.875 -1.75 5.875 -4 7 C-4 7.99 -4 8.98 -4 10 C-5.65 10.33 -7.3 10.66 -9 11 C-6.36113346 6.7973607 -3.63559661 3.43361902 0 0 Z " fill="#907760" transform="translate(342,286)"/>
<path d="M0 0 C1.31225809 3.93677426 0.3393954 5.7794262 -0.9375 9.6875 C-1.50791016 11.45673828 -1.50791016 11.45673828 -2.08984375 13.26171875 C-2.39019531 14.16535156 -2.69054687 15.06898438 -3 16 C-3.66 16 -4.32 16 -5 16 C-3.90301833 10.30860098 -2.45946923 5.25432063 0 0 Z " fill="#433D31" transform="translate(260,372)"/>
<path d="M0 0 C1.32830615 3.98491845 0.23204404 5.40048548 -1.4375 9.1875 C-1.91058594 10.27417969 -2.38367188 11.36085937 -2.87109375 12.48046875 C-3.42990234 13.72763672 -3.42990234 13.72763672 -4 15 C-4.33 15 -4.66 15 -5 15 C-5.56102731 9.38972689 -3.79491313 5.70308675 -1 1 C-0.67 0.67 -0.34 0.34 0 0 Z " fill="#987A5C" transform="translate(172,241)"/>
<path d="M0 0 C1.32 0.33 2.64 0.66 4 1 C4 1.99 4 2.98 4 4 C6.64 4 9.28 4 12 4 C11.67 4.66 11.34 5.32 11 6 C7.75 6.3125 7.75 6.3125 4 6 C1.5625 3.5625 1.5625 3.5625 0 1 C0 0.67 0 0.34 0 0 Z " fill="#473E35" transform="translate(303,163)"/>
<path d="M0 0 C0.66 0.33 1.32 0.66 2 1 C-1.96570677 5.38808974 -5.01191871 8.68554313 -11 10 C-7.50640535 6.40365256 -3.88901869 3.16548033 0 0 Z " fill="#413930" transform="translate(383,411)"/>
<path d="M0 0 C0.66 0 1.32 0 2 0 C1.52343588 1.79236067 1.04366502 3.58386897 0.5625 5.375 C0.29566406 6.37273437 0.02882813 7.37046875 -0.24609375 8.3984375 C-1 11 -1 11 -2 13 C-2.66 13 -3.32 13 -4 13 C-4 12.01 -4 11.02 -4 10 C-3.34 10 -2.68 10 -2 10 C-2.33 9.01 -2.66 8.02 -3 7 C-2.07796291 4.63477442 -1.08301035 2.29598193 0 0 Z " fill="#39342E" transform="translate(269,342)"/>
<path d="M0 0 C5.75 0.875 5.75 0.875 8 2 C8 2.66 8 3.32 8 4 C9.32 4.33 10.64 4.66 12 5 C9 6 9 6 6.73828125 5.00390625 C5.93777344 4.52824219 5.13726562 4.05257813 4.3125 3.5625 C3.50425781 3.08941406 2.69601562 2.61632812 1.86328125 2.12890625 C1.24839844 1.75636719 0.63351562 1.38382812 0 1 C0 0.67 0 0.34 0 0 Z " fill="#39352E" transform="translate(373,261)"/>
<path d="M0 0 C2.31332486 3.46998729 2.33957563 4.92509248 2 9 C1.01 10.485 1.01 10.485 0 12 C-0.66 12 -1.32 12 -2 12 C-1.85904936 10.3745692 -1.71207913 8.74965949 -1.5625 7.125 C-1.48128906 6.22007812 -1.40007812 5.31515625 -1.31640625 4.3828125 C-1 2 -1 2 0 0 Z " fill="#3F3A32" transform="translate(321,304)"/>
<path d="M0 0 C0.99 0.33 1.98 0.66 3 1 C4.04976964 4.14930893 4.10131595 6.38814456 4.0625 9.6875 C4.05347656 10.68136719 4.04445312 11.67523438 4.03515625 12.69921875 C4.02355469 13.45847656 4.01195312 14.21773437 4 15 C3.67 15 3.34 15 3 15 C2.92652344 14.09507812 2.92652344 14.09507812 2.8515625 13.171875 C2.77679688 12.37265625 2.70203125 11.5734375 2.625 10.75 C2.55539063 9.96109375 2.48578125 9.1721875 2.4140625 8.359375 C1.98380988 5.90774689 1.15017865 4.18814474 0 2 C0 1.34 0 0.68 0 0 Z " fill="#494036" transform="translate(240,151)"/>
<path d="M0 0 C-4.95 2.97 -4.95 2.97 -10 6 C-9.67 5.01 -9.34 4.02 -9 3 C-8.34 3 -7.68 3 -7 3 C-6.67 2.01 -6.34 1.02 -6 0 C-4 -1 -4 -1 0 0 Z " fill="#97775C" transform="translate(362,428)"/>
<path d="M0 0 C0.33 0 0.66 0 1 0 C1.46192125 4.92715996 -0.1724717 8.50732625 -2 13 C-2.66 13 -3.32 13 -4 13 C-3.52343588 11.20763933 -3.04366502 9.41613103 -2.5625 7.625 C-2.29566406 6.62726563 -2.02882813 5.62953125 -1.75390625 4.6015625 C-1 2 -1 2 0 0 Z " fill="#95775C" transform="translate(296,267)"/>
<path d="M0 0 C0.99 0 1.98 0 3 0 C3 0.66 3 1.32 3 2 C4.32 1.67 5.64 1.34 7 1 C7.33 2.98 7.66 4.96 8 7 C2.25 3.375 2.25 3.375 0 0 Z " fill="#967758" transform="translate(130,120)"/>
<path d="M0 0 C0.99 0.33 1.98 0.66 3 1 C3.125 3.375 3.125 3.375 3 6 C1 8 1 8 -1.625 8.125 C-2.40875 8.08375 -3.1925 8.0425 -4 8 C-1 6 -1 6 1 6 C0.67 4.02 0.34 2.04 0 0 Z " fill="#493D34" transform="translate(374,267)"/>
<path d="M0 0 C2.32472205 2.85306797 3.7508258 5.54074837 5 9 C3.0625 8.625 3.0625 8.625 1 8 C-0.35439668 5.29120665 -0.06501451 2.99066732 0 0 Z " fill="#403C35" transform="translate(124,111)"/>
<path d="M0 0 C1.32 1.32 2.64 2.64 4 4 C0.90521121 5.03159626 -0.52631393 4.97482862 -3.6875 4.5625 C-4.89986328 4.40974609 -4.89986328 4.40974609 -6.13671875 4.25390625 C-6.75160156 4.17011719 -7.36648437 4.08632813 -8 4 C-8 3.67 -8 3.34 -8 3 C-5.36 3 -2.72 3 0 3 C0 2.01 0 1.02 0 0 Z " fill="#836C5A" transform="translate(193,293)"/>
<path d="M0 0 C0.33 0 0.66 0 1 0 C1 3.63 1 7.26 1 11 C-0.32 11 -1.64 11 -3 11 C-3 10.34 -3 9.68 -3 9 C-2.01 9 -1.02 9 0 9 C0 6.03 0 3.06 0 0 Z " fill="#8C735A" transform="translate(317,96)"/>
<path d="M0 0 C0.763125 0.309375 1.52625 0.61875 2.3125 0.9375 C4.18789677 1.67893593 6.08684652 2.36228217 8 3 C8 3.99 8 4.98 8 6 C4.08597051 4.73058503 2.20927127 3.48832306 0 0 Z " fill="#423930" transform="translate(178,377)"/>
<path d="M0 0 C0.33 0 0.66 0 1 0 C1.05416188 1.60379341 1.09286638 3.20811406 1.125 4.8125 C1.14820313 5.70582031 1.17140625 6.59914063 1.1953125 7.51953125 C1 10 1 10 -1 13 C-2.51403812 8.15507803 -1.36602172 4.7408989 0 0 Z " fill="#A3805F" transform="translate(412,313)"/>
<path d="M0 0 C1.13757948 4.55031791 0.4283779 6.63084406 -1 11 C-1.66 11 -2.32 11 -3 11 C-2.01 7.37 -1.02 3.74 0 0 Z " fill="#947559" transform="translate(283,305)"/>
<path d="M0 0 C0.66 0 1.32 0 2 0 C0.84414715 3.91211733 -0.35534962 6.8745041 -3 10 C-2.25 3.375 -2.25 3.375 0 0 Z " fill="#3B362D" transform="translate(87,267)"/>
<path d="M0 0 C1.13643966 3.40931897 0.86747764 4.00335456 -0.4375 7.1875 C-0.86869141 8.26064453 -0.86869141 8.26064453 -1.30859375 9.35546875 C-1.53675781 9.89816406 -1.76492187 10.44085938 -2 11 C-2.33 11 -2.66 11 -3 11 C-3.32613618 6.32538149 -2.70582788 3.83325617 0 0 Z " fill="#9C7E5E" transform="translate(251,261)"/>
<path d="M0 0 C3.05882701 1.52941351 3.68951234 3.94219546 5 7 C4.67 7.66 4.34 8.32 4 9 C-0.00390625 4.60546875 -0.00390625 4.60546875 -1 3 C-0.67 2.01 -0.34 1.02 0 0 Z " fill="#3C362F" transform="translate(354,176)"/>
<path d="M0 0 C0.33 0 0.66 0 1 0 C1.66 2.97 2.32 5.94 3 9 C2.01 9.66 1.02 10.32 0 11 C0 7.37 0 3.74 0 0 Z " fill="#E2E5E2" transform="translate(402,382)"/>
<path d="M0 0 C0.33 0 0.66 0 1 0 C1.33 3.96 1.66 7.92 2 12 C1.01 11.67 0.02 11.34 -1 11 C-0.67 7.37 -0.34 3.74 0 0 Z " fill="#595E5D" transform="translate(22,262)"/>
<path d="M0 0 C0.66 0.33 1.32 0.66 2 1 C-3.625 5 -3.625 5 -7 5 C-7 4.34 -7 3.68 -7 3 C-4.69631264 1.93347808 -2.35981813 0.93578995 0 0 Z " fill="#3A322A" transform="translate(180,96)"/>
<path d="M0 0 C1.70884005 1.62339805 3.37446717 3.29319053 5 5 C5 5.66 5 6.32 5 7 C3.0625 6.3125 3.0625 6.3125 1 5 C0.25 2.375 0.25 2.375 0 0 Z " fill="#9B7D5E" transform="translate(164,89)"/>
<path d="M0 0 C0 0.33 0 0.66 0 1 C-0.93972656 1.19916016 -0.93972656 1.19916016 -1.8984375 1.40234375 C-3.12433594 1.66724609 -3.12433594 1.66724609 -4.375 1.9375 C-5.18710937 2.11152344 -5.99921875 2.28554687 -6.8359375 2.46484375 C-9.029463 2.92330693 -9.029463 2.92330693 -11 4 C-11.66 3.34 -12.32 2.68 -13 2 C-8.50343896 -0.24828052 -4.92127034 -0.16682272 0 0 Z " fill="#8B735D" transform="translate(301,81)"/>
</svg>
